PathFileType	4	(X/Y/Z)	60_1_26_p0_0-357.trc
DataRate	CameraRate	NumFrames	NumMarkers	Units	OrigDataRate	OrigDataStartFrame	OrigNumFrames
45.0	45.0	4	27	m	45.0	0	358
Frame#	Time	RHip			RKnee			RAnkle			RBigToe			RSmallToe			RHeel			LHip			LKnee			LAnkle			LBigToe			LSmallToe			LHeel			Neck			Head			Nose			RShoulder			RElbow			RWrist			RThumb			RIndex			RPinky			LShoulder			LElbow			LWrist			LThumb			LIndex			LPinky			
		X1	Y1	Z1	X2	Y2	Z2	X3	Y3	Z3	X4	Y4	Z4	X5	Y5	Z5	X6	Y6	Z6	X7	Y7	Z7	X8	Y8	Z8	X9	Y9	Z9	X10	Y10	Z10	X11	Y11	Z11	X12	Y12	Z12	X13	Y13	Z13	X14	Y14	Z14	X15	Y15	Z15	X16	Y16	Z16	X17	Y17	Z17	X18	Y18	Z18	X19	Y19	Z19	X20	Y20	Z20	X21	Y21	Z21	X22	Y22	Z22	X23	Y23	Z23	X24	Y24	Z24	X25	Y25	Z25	X26	Y26	Z26	X27	Y27	Z27	
0	0.0	0.31738168593087496	0.48698104092424177	-0.20881632638766884	0.3049809443074612	0.6558999967966405	0.2193349270687883	0.2817123024723827	0.8091347952876435	0.6017709920958023	0.2672598832211536	0.5976836035119641	0.6628242046968496	0.32810565907309164	0.6547702820229617	0.6680907980453912	0.26855546381070056	0.871555099725501	0.6555223222966801	0.10357294560516805	0.4897307584219563	-0.20931318070136495	0.10362344598440702	0.6598373180164491	0.20711737566794358	0.10955262574485411	0.7876790253867598	0.5849772083308481	0.11256522647732872	0.6040785493134467	0.6614874319658701	0.06719721711431965	0.6814287256499054	0.6617704607127842	0.12936859412647145	0.8823472836823835	0.6214442439719013	0.24029906702943862	0.32674137828143357	-0.7493341031785719	0.2535024020750555	0.18973710601309995	-0.9522157212718694	0.24853052472281317	0.19259522532756054	-0.8170990352645352	0.41550291151413044	0.3520641710837361	-0.6719977665644561	0.5222710084883198	0.3891196423199547	-0.43192803873980756	0.3261035388170065	0.25113288766053515	-0.4209369052085057	0.19281790637049334	0.23457765513203382	-0.4045368503872625	0.18559236914868743	0.2453782456116897	-0.3700747519276133	0.2240905717878551	0.2520235517882316	-0.32195711412839295	0.0865731450100819	0.35578160760535427	-0.6912594660608641	-0.03284369093939603	0.3252173235194443	-0.45472806684232403	0.13316038789262122	0.2507367072541317	-0.3813953546973007	0.20869818479985536	0.25519416166689823	-0.3912783631868869	0.21775488899449477	0.24683118324284828	-0.37399210897901813	0.2128859360667643	0.25289417556090926	-0.31901421734251006
1	0.022222222222222223	0.3173815309973623	0.48704024283346303	-0.20841306250312894	0.3082513368448614	0.6686220981398091	0.21994482802455304	0.28538512747991757	0.8209243505380681	0.5960053715696195	0.2668346962444862	0.6265503736934893	0.6688512124576136	0.3242541682494952	0.6723133089176164	0.6720226767003082	0.2733865473756672	0.8855700100621742	0.653592914555911	0.10346589036396628	0.489056327689972	-0.2092776971168847	0.10391921200476621	0.6600720054545458	0.21109033487946097	0.1096012129455867	0.7876044439789026	0.585088605574992	0.11213178642868749	0.6035455850639043	0.6573105598878308	0.06670708308624058	0.6803736433103165	0.6620991013667981	0.13478223898284267	0.8620696214858719	0.6214276214080501	0.24044234660381975	0.32685489886458163	-0.7494763292968019	0.24923555190563276	0.18944354217184836	-0.9522149578964262	0.24858359555853823	0.1926052258234865	-0.8171500760138397	0.41916741590457923	0.36366854209580124	-0.6745367895211593	0.5176542097781337	0.3775691225040286	-0.4303673707517945	0.31826186302431236	0.24060157780576027	-0.4120466792276786	0.19262047839927243	0.23518144097315252	-0.4038332894848873	0.18178954644979153	0.2426039725399839	-0.3763799001958927	0.21948259041267135	0.25394360834976404	-0.3113179474331648	0.08650252280602655	0.35547476869558886	-0.6914158917026831	-0.028803000697717667	0.32673090045822734	-0.455192029980926	0.13303395833386653	0.2508271932618873	-0.38147167118153497	0.2055391841571382	0.24249068394190135	-0.3896601301057601	0.21365895318160058	0.25866942750691374	-0.3754171390949547	0.21312486182829837	0.25344007382728406	-0.3160153901507943
2	0.044444444444444446	0.3173318055665896	0.4867360563231984	-0.208211688126189	0.30442296290036464	0.6539025376952607	0.2188397879103214	0.28543515909243705	0.8210653805573446	0.5958591897378251	0.27127808468710213	0.6080704095484609	0.6605330937497833	0.3237892720561554	0.6709567083342037	0.6720695768811422	0.27307459472156287	0.8854197741765021	0.6491642026518276	0.10349340500696566	0.4891400765866141	-0.2092264092957907	0.10470760310695312	0.6590938742755319	0.20699728786554905	0.10968711011375067	0.7875528580043715	0.5847261785111052	0.11221894933264512	0.6039152812142304	0.6571475688069109	0.06604985776316753	0.6779661305759529	0.6573785807925361	0.12973539012895666	0.8825224425762254	0.6211012567171306	0.23643404888851022	0.34023811088075395	-0.7526640985293852	0.24922117399406737	0.18951951412060938	-0.9523636928342148	0.2485880370061278	0.19257326221006743	-0.817118430208973	0.41916785571857706	0.3636429108343389	-0.6745195921618873	0.5146601255112757	0.3917081690778006	-0.43223960007615	0.317856142761058	0.24106887070160202	-0.40837525706554617	0.19254774168467326	0.23490290588894483	-0.40387161536117894	0.18193736075781425	0.24322326026950278	-0.3729590715876227	0.2195530740118493	0.25419699470353674	-0.3111826788585022	0.08632696469252889	0.3535666090192385	-0.6947266108442861	-0.02635994880050571	0.3399575616661699	-0.45696360929717683	0.13720737897997148	0.25146386336989796	-0.38152569449824614	0.2097589762655066	0.24224326850928846	-0.3895333530320658	0.21414913496981589	0.2595088108067374	-0.37187537393998	0.21316773236869113	0.25328523313248413	-0.31560248915802663
3	0.06666666666666667	0.3178647858384914	0.48912991033904035	-0.20423557658509442	0.30510519244693235	0.6566063286369708	0.22310824072027355	0.28545088745730807	0.8212046544076206	0.5958188566308013	0.263785511536257	0.614597683161848	0.6662846693926481	0.32326637926002555	0.67068967393823	0.6639980992399085	0.27314815023734607	0.8854801200293871	0.6489001663240721	0.10352166295754352	0.4893211565279293	-0.20916778133886718	0.10468656665598944	0.6589804711534734	0.20694483965681557	0.10969888715450082	0.7876296575220808	0.585017599690404	0.11218750154218866	0.6037012962968544	0.6572205498121869	0.06674362596590842	0.6807882528713118	0.6621255102332883	0.13492458484146239	0.8629979348227805	0.6172588174217638	0.23643524661087528	0.34034323233985675	-0.752701530739028	0.24923275688344101	0.18964291428128066	-0.9494886111448408	0.2487523564082903	0.19402317688778464	-0.8142782534826825	0.41914952431207386	0.3637257664797825	-0.674517043824133	0.5101800845928309	0.38056150834518226	-0.4308760378039175	0.3177443851264893	0.24130954190255577	-0.4083983592088865	0.18813743581448766	0.23492876515181893	-0.40071229125868313	0.1815378913020508	0.24377362130147906	-0.36923170284827306	0.21584545381916434	0.26832746847930844	-0.3053358373620006	0.08651755569210315	0.35530917917060384	-0.6913059272884469	-0.026191337343720738	0.3400608600310849	-0.4569517485047838	0.1331786165352751	0.2504312054356667	-0.381273015388274	0.2129489315934498	0.25412132431979756	-0.39083441906533667	0.21825560303859243	0.24773857432381557	-0.3704653376034004	0.21278870686082105	0.2541167317596841	-0.31268782693557706
